<svg width="144" height="91" viewBox="0 0 144 91" fill="none" xmlns="http://www.w3.org/2000/svg">
<g id="Group 433">
<path id="Rectangle 57" d="M16.2808 23.1847C16.2808 11.9708 25.3714 2.88013 36.5853 2.88013H115.219C126.12 2.88013 132.013 15.6556 124.936 23.9475C124.474 24.4892 123.967 24.9913 123.421 25.4486L122.74 26.0189C119.134 29.0388 114.701 30.9008 110.02 31.3615L98.6962 32.4759H78.873C69.9027 32.4759 61.1674 35.3435 53.9424 40.66C51.8573 42.1943 49.9183 43.9178 48.15 45.8086L42.729 51.6054C42.1332 52.2425 41.5961 52.9321 41.1243 53.6657C33.8405 64.9924 16.2808 59.8336 16.2808 46.3671V23.1847Z" stroke="white"/>
<path id="Rectangle 58" d="M127.719 70.9057C127.719 82.1196 118.629 91.2102 107.415 91.2102H28.7808C17.8796 91.2102 11.9872 78.4347 19.0639 70.1428C19.5262 69.6011 20.033 69.099 20.579 68.6417L21.26 68.0714C24.8662 65.0515 29.2993 63.1896 33.9803 62.7289L45.3038 61.6144H65.127C74.0973 61.6144 82.8326 58.7469 90.0576 53.4304C92.1427 51.896 94.0817 50.1725 95.85 48.2817L101.271 42.4849C101.867 41.8478 102.404 41.1583 102.876 40.4246C110.16 29.098 127.719 34.2567 127.719 47.7232V70.9057Z" stroke="white"/>
</g>
</svg>
